<?xml version="1.0" encoding="utf-8"?>
<!-- Generator: Adobe Illustrator 19.1.0, SVG Export Plug-In . SVG Version: 6.00 Build 0)  -->
<svg version="1.1" id="Layer_1" xmlns="http://www.w3.org/2000/svg" xmlns:xlink="http://www.w3.org/1999/xlink" x="0px" y="0px"
	 viewBox="0 0 192 192" style="enable-background:new 0 0 192 192;" xml:space="preserve">
<style type="text/css">
	.st0{fill:#E1E4E5;}
	.st1{fill:none;stroke:#00ADEE;stroke-width:5.5125;stroke-miterlimit:10;}
	.st2{fill:#303B41;}
	.st3{fill-rule:evenodd;clip-rule:evenodd;fill:#303B41;}
</style>
<circle class="st0" cx="96" cy="96" r="93.2"/>
<circle class="st1" cx="96" cy="96" r="93.2"/>
<g>
	<g>
		<path class="st2" d="M56.5,119.8l-1.2,2.6c-1.5-0.9-3.2-1.4-4.4-1.4c-1.1,0-1.8,0.4-1.8,1.1c0,2.6,7.5,1.1,7.4,6.2
			c0,2.7-2.4,4.2-5.5,4.2c-2.3,0-4.6-0.9-6.2-2.2l1.3-2.6c1.4,1.3,3.5,2.1,5,2.1c1.3,0,2.1-0.5,2.1-1.3c0-2.6-7.5-1.1-7.5-6.1
			c0-2.5,2.2-4.1,5.4-4.1C53.2,118.3,55.1,118.9,56.5,119.8z"/>
		<path class="st2" d="M67.9,123.9l-2.1,1.5c-0.6-0.7-1.4-1.2-2.5-1.1c-1.5,0-2.6,1.2-2.6,2.9c0,1.7,1.1,2.9,2.6,2.9
			c1.1,0,2-0.4,2.5-1.3l2.1,1.4c-0.9,1.5-2.6,2.4-4.8,2.4c-3.3,0-5.5-2.2-5.5-5.5c0-3.3,2.2-5.5,5.5-5.5
			C65.3,121.6,67,122.4,67.9,123.9z"/>
		<path class="st2" d="M80.4,125.7v6.8h-3.1v-5.9c0-1.4-0.8-2.2-2.1-2.2c-1.5,0-2.5,1.2-2.5,2.8v5.3h-3.1v-14.8h3.1v6
			c0.8-1.3,2-2,3.7-2C78.8,121.6,80.4,123.2,80.4,125.7z"/>
		<path class="st2" d="M92.8,128h-7.7c0.4,1.4,1.4,2.2,2.8,2.2c1,0,2-0.4,2.7-1.1l1.6,1.6c-1.1,1.2-2.7,1.9-4.6,1.9
			c-3.4,0-5.6-2.2-5.6-5.5c0-3.3,2.3-5.5,5.5-5.5C91.3,121.6,93.1,124.1,92.8,128z M90,126.2c0-1.4-1-2.3-2.4-2.3
			c-1.4,0-2.3,0.9-2.5,2.3H90z"/>
		<path class="st2" d="M105.5,132.5h-3.1v-1.6c-0.8,1.1-1.9,1.7-3.4,1.7c-3.1,0-5.1-2.2-5.1-5.5c0-3.3,2-5.5,5-5.5
			c1.5,0,2.7,0.6,3.5,1.7v-5.7h3.1V132.5z M102.4,127.1c0-1.8-1.1-3-2.7-3c-1.6,0-2.7,1.2-2.7,3c0,1.8,1.1,3,2.7,3
			C101.3,130.1,102.4,128.9,102.4,127.1z"/>
		<path class="st2" d="M118.5,132.5h-3.1v-1.9c-0.7,1.4-2,2-3.6,2c-2.4,0-3.9-1.6-3.9-4.1v-6.8h3.1v5.9c0,1.4,0.8,2.2,2,2.2
			c1.5,0,2.4-1.2,2.4-2.7v-5.3h3.1V132.5z"/>
		<path class="st2" d="M121.2,132.5v-14.8h3.1v14.8H121.2z"/>
		<path class="st2" d="M137,128h-7.7c0.4,1.4,1.4,2.2,2.8,2.2c1,0,2-0.4,2.7-1.1l1.6,1.6c-1.1,1.2-2.7,1.9-4.6,1.9
			c-3.4,0-5.6-2.2-5.6-5.5c0-3.3,2.3-5.5,5.5-5.5C135.5,121.6,137.2,124.1,137,128z M134.1,126.2c0-1.4-1-2.3-2.4-2.3
			c-1.4,0-2.3,0.9-2.5,2.3H134.1z"/>
		<path class="st2" d="M146.8,122.8l-1.1,2.1c-1.2-0.7-2.4-1-3.3-1c-0.7,0-1.2,0.2-1.2,0.8c0,1.6,5.7,0.8,5.7,4.6
			c0,2.2-1.9,3.4-4.4,3.4c-1.7,0-3.4-0.5-4.7-1.5l1-2.1c1.1,0.9,2.6,1.3,3.7,1.3c0.8,0,1.4-0.3,1.4-0.8c0-1.7-5.6-0.8-5.6-4.6
			c0-2.2,1.9-3.4,4.2-3.4C144.1,121.6,145.6,122,146.8,122.8z"/>
	</g>
</g>
<path class="st3" d="M110.7,83.3H102v-4.2h8.7V83.3L110.7,83.3z M110.7,76.8H102v-4.2h8.7V76.8L110.7,76.8z M98.6,89.8h-8.7v-4.2
	h8.7V89.8L98.6,89.8z M98.6,83.3h-8.7v-4.2h8.7V83.3L98.6,83.3z M98.6,76.8h-8.7v-4.2h8.7V76.8L98.6,76.8z M86.5,89.8h-8.7v-4.2h8.7
	V89.8L86.5,89.8z M86.5,83.3h-8.7v-4.2h8.7V83.3L86.5,83.3z M86.5,76.8h-8.7v-4.2h8.7V76.8L86.5,76.8z M79.3,52.8
	c0-1.5,1.2-2.7,2.7-2.7c1.5,0,2.7,1.2,2.7,2.7v8.4c0,1.5-1.2,2.7-2.7,2.7c-1.5,0-2.7-1.2-2.7-2.7V52.8L79.3,52.8z M102.7,52.8
	c0-1.5,1.2-2.7,2.7-2.7c1.5,0,2.7,1.2,2.7,2.7v8.4c0,1.5-1.2,2.7-2.7,2.7c-1.5,0-2.7-1.2-2.7-2.7V52.8L102.7,52.8z M71.5,67.9H116
	c0.3,0,0.5,0.2,0.5,0.5v25.6c0,0.3-0.2,0.5-0.5,0.5H71.5c-0.3,0-0.5-0.2-0.5-0.5V68.4C71,68.1,71.2,67.9,71.5,67.9L71.5,67.9z
	 M68.9,55.9h8.9v5.2c0,2.4,1.9,4.3,4.3,4.3c2.4,0,4.3-1.9,4.3-4.3v-5.2h14.9v5.2c0,2.4,1.9,4.3,4.3,4.3c2.4,0,4.3-1.9,4.3-4.3v-5.2
	h8.9c0.5,0,1,0.4,1,1v39.8c0,0.5-0.4,1-1,1H68.9c-0.5,0-1-0.4-1-1V56.9C68,56.4,68.4,55.9,68.9,55.9L68.9,55.9z M121.5,59
	c1.4,0,2.5,1.1,2.5,2.5v38.2c0,1.4-1.1,2.5-2.5,2.5H73.3c-1.4,0-2.5-1.1-2.5-2.5v-0.5h47.8c1.4,0,2.5-1.1,2.5-2.5V59H121.5L121.5,59
	z"/>
</svg>
